<svg width="50" height="50" viewBox="0 0 50 50" fill="none" xmlns="http://www.w3.org/2000/svg">
<g id="Group">
<path id="Vector" d="M25 50C11.1929 50 0 38.8071 0 25C0 11.1929 11.1929 0 25 0C38.8071 0 50 11.1929 50 25C50 38.8071 38.8071 50 25 50Z" fill="black" fill-opacity="0.2"/>
<path id="Vector_2" d="M27.715 33.699C27.5448 33.8731 27.3169 33.9792 27.0741 33.9972C26.8312 34.0153 26.5901 33.9441 26.396 33.797L26.301 33.715L18.301 25.898C18.1289 25.7298 18.0231 25.5051 18.0033 25.2652C17.9835 25.0253 18.0508 24.7862 18.193 24.592L18.273 24.496L25.996 16.314C26.1706 16.1289 26.4091 16.0173 26.663 16.0019C26.917 15.9865 27.1672 16.0684 27.3629 16.231C27.5585 16.3937 27.6848 16.6247 27.7161 16.8772C27.7473 17.1297 27.6811 17.3846 27.531 17.59L27.451 17.686L20.402 25.155L27.699 32.285C27.8732 32.4552 27.9792 32.6831 27.9972 32.926C28.0153 33.1688 27.9441 33.4099 27.797 33.604L27.715 33.699Z" fill="white"/>
</g>
</svg>
