<svg width="30" height="30" viewBox="0 0 30 30" fill="none" xmlns="http://www.w3.org/2000/svg">
<g id="Group">
<path id="Vector" d="M15.044 4C15.2254 3.99977 15.4008 4.06529 15.5376 4.18444C15.6744 4.30359 15.7633 4.46828 15.788 4.648L15.794 4.75V7.439L17.514 5.719C17.6412 5.59187 17.8098 5.51466 17.9891 5.50145C18.1685 5.48823 18.3466 5.53989 18.491 5.647L18.575 5.72C18.7019 5.84711 18.7789 6.01553 18.7921 6.19464C18.8053 6.37374 18.7538 6.55165 18.647 6.696L18.575 6.78L15.795 9.56L15.794 13.95L19.596 11.756L20.614 7.958C20.6625 7.77457 20.7787 7.61633 20.9392 7.51515C21.0997 7.41398 21.2926 7.3774 21.479 7.41278C21.6654 7.44816 21.8314 7.55287 21.9437 7.70581C22.056 7.85875 22.1061 8.04856 22.084 8.237L22.064 8.346L21.434 10.696L23.763 9.35C23.9277 9.25429 24.1227 9.22487 24.3084 9.2677C24.494 9.31054 24.6564 9.42242 24.7626 9.58063C24.8687 9.73884 24.9107 9.93152 24.8799 10.1195C24.8492 10.3076 24.748 10.4768 24.597 10.593L24.513 10.65L22.185 11.994L24.533 12.624C24.7063 12.6707 24.8571 12.778 24.9581 12.9265C25.059 13.0749 25.1033 13.2547 25.083 13.433L25.063 13.543C25.0163 13.7165 24.9088 13.8675 24.7601 13.9684C24.6115 14.0693 24.4315 14.1136 24.253 14.093L24.145 14.073L20.347 13.055L16.544 15.249L20.346 17.445L24.145 16.427C24.3283 16.3767 24.5239 16.3979 24.6922 16.4863C24.8605 16.5747 24.9889 16.7237 25.0515 16.9032C25.1142 17.0827 25.1063 17.2793 25.0295 17.4532C24.9528 17.6271 24.8128 17.7653 24.638 17.84L24.533 17.876L22.183 18.506L24.513 19.85C24.6783 19.9448 24.8013 20.0989 24.8571 20.281C24.9129 20.4632 24.8973 20.6598 24.8134 20.8309C24.7295 21.0019 24.5837 21.1347 24.4055 21.2021C24.2273 21.2696 24.0301 21.2667 23.854 21.194L23.763 21.15L21.435 19.806L22.063 22.154C22.1096 22.3275 22.0923 22.512 22.0143 22.6739C21.9363 22.8358 21.8028 22.9643 21.638 23.036L21.533 23.073C21.3593 23.1195 21.1747 23.1021 21.0129 23.0239C20.851 22.9457 20.7226 22.8119 20.651 22.647L20.614 22.542L19.597 18.745L15.794 16.548V20.939L18.574 23.719C18.7085 23.8527 18.7875 24.0323 18.7948 24.2218C18.8022 24.4113 18.7376 24.5966 18.6139 24.7403C18.4902 24.8841 18.3166 24.9756 18.1281 24.9965C17.9396 25.0174 17.7502 24.9661 17.598 24.853L17.514 24.78L15.794 23.06V25.75C15.7939 25.94 15.7218 26.1229 15.592 26.2618C15.4623 26.4006 15.2847 26.4851 15.0951 26.498C14.9055 26.511 14.7181 26.4515 14.5707 26.3316C14.4233 26.2117 14.3269 26.0402 14.301 25.852L14.294 25.75V23.062L12.574 24.78C12.447 24.907 12.2787 24.9842 12.0996 24.9976C11.9204 25.011 11.7425 24.9597 11.598 24.853L11.514 24.78C11.387 24.653 11.3098 24.4847 11.2964 24.3055C11.283 24.1264 11.3343 23.9485 11.441 23.804L11.514 23.72L14.294 20.94V16.549L10.493 18.744L9.475 22.542C9.42653 22.7254 9.31033 22.8837 9.14983 22.9848C8.98933 23.086 8.79645 23.1226 8.61005 23.0872C8.42365 23.0518 8.25758 22.9471 8.14531 22.7942C8.03303 22.6412 7.9829 22.4514 8.005 22.263L8.025 22.154L8.655 19.804L6.326 21.15C6.16123 21.2472 5.96554 21.2777 5.77898 21.2354C5.59242 21.193 5.42909 21.081 5.32242 20.9222C5.21574 20.7634 5.17378 20.5698 5.20512 20.3811C5.23646 20.1924 5.33873 20.0228 5.491 19.907L5.576 19.85L7.904 18.506L5.556 17.876C5.3825 17.8295 5.23146 17.7222 5.13034 17.5738C5.02922 17.4253 4.98475 17.2455 5.005 17.067L5.025 16.957C5.07174 16.7835 5.17922 16.6325 5.32788 16.5316C5.47654 16.4307 5.65649 16.3864 5.835 16.407L5.945 16.427L9.742 17.445L13.544 15.25L9.743 13.055L5.944 14.073C5.76068 14.1233 5.5651 14.1021 5.39682 14.0137C5.22853 13.9253 5.10009 13.7763 5.03747 13.5968C4.97485 13.4173 4.98272 13.2207 5.05948 13.0468C5.13625 12.8729 5.27619 12.7347 5.451 12.66L5.556 12.624L7.906 11.994L5.576 10.65C5.41071 10.5552 5.28767 10.4011 5.23187 10.219C5.17608 10.0368 5.1917 9.8402 5.27558 9.66913C5.35946 9.49806 5.50531 9.36533 5.6835 9.29789C5.86169 9.23044 6.05887 9.23334 6.235 9.306L6.326 9.35L8.654 10.694L8.026 8.346C7.97944 8.17245 7.99673 7.98796 8.07473 7.82609C8.15273 7.66422 8.28626 7.53573 8.451 7.464L8.556 7.427C8.72967 7.38051 8.91426 7.39794 9.07615 7.47614C9.23804 7.55433 9.36645 7.68807 9.438 7.853L9.475 7.958L10.492 11.755L14.294 13.951V9.561L11.514 6.781C11.3781 6.64756 11.298 6.4674 11.2901 6.2771C11.2822 6.0868 11.3469 5.9006 11.4713 5.7563C11.5956 5.612 11.7701 5.5204 11.9595 5.50011C12.1489 5.47981 12.3389 5.53233 12.491 5.647L12.575 5.72L14.295 7.439V4.75C14.295 4.55109 14.374 4.36032 14.5147 4.21967C14.6553 4.07902 14.8461 4 15.045 4H15.044Z" fill="#6FAFF3"/>
</g>
</svg>
