<svg width="103" height="32" viewBox="0 0 103 32" fill="none" xmlns="http://www.w3.org/2000/svg">
<g id="logo_tosspayments" clip-path="url(#clip0_7098_1653)">
<g id="Group" opacity="0.5">
<path id="Vector" d="M21.4051 19.7603V24.7032H19.0042V11.4527H21.3881V12.7672C22.0186 11.8382 23.0881 11.26 24.3673 11.26C26.7512 11.26 28.9235 13.1703 28.9235 16.187C28.9235 19.2037 26.7154 21.1123 24.3843 21.1123C23.1056 21.11 22.0362 20.637 21.4051 19.7603ZM26.5056 16.1677C26.5056 14.6775 25.3492 13.5035 23.8943 13.5035C22.4047 13.5035 21.2652 14.6974 21.2652 16.1677C21.2652 17.6379 22.4024 18.8313 23.8943 18.8313C25.3492 18.8313 26.5056 17.6573 26.5056 16.1677Z" fill="black"/>
<path id="Vector_2" d="M50.8694 11.4527H53.2858V12.5745C53.864 11.7523 54.7753 11.26 55.9147 11.26C57.3361 11.26 58.2986 11.8382 58.8069 12.8547C59.4027 11.8734 60.4716 11.2628 61.7685 11.2628C64.17 11.2628 65.3793 12.7348 65.3793 15.1011V20.9173H62.8902V15.4479C62.8902 14.1681 62.3643 13.3795 61.1379 13.3795C60.0509 13.3795 59.3322 14.1186 59.3322 15.6054V20.9173H56.8613V15.3785C56.8613 14.1169 56.3354 13.3807 55.1608 13.3807C54.0237 13.3807 53.3034 14.1345 53.3034 15.6594V20.9173H50.8694V11.4527Z" fill="black"/>
<path id="Vector_3" d="M71.5133 11.276C69.4944 11.276 67.8257 12.3977 67.0394 14.0437C66.7168 14.7231 66.5507 15.4662 66.5533 16.2184C66.5533 18.9701 68.5159 21.1261 71.5656 21.1261C73.5612 21.1261 74.8632 20.3386 75.8041 19.1043L73.8261 17.9621C73.3491 18.6262 72.6322 19.0423 71.6009 19.0423C70.1988 19.0423 69.1993 18.2708 68.8843 17.0439H76.3403C76.3812 16.7712 76.4019 16.4958 76.4022 16.2201V16.1302C76.4034 13.3267 74.3503 11.276 71.5133 11.276ZM68.9548 15.1495C69.3403 14.0454 70.2869 13.3267 71.5133 13.3267C72.7749 13.3267 73.6863 13.9754 74.0018 15.1495H68.9548Z" fill="black"/>
<path id="Vector_4" d="M77.6104 11.4528H80.0289V12.6468C80.6424 11.7883 81.6208 11.2623 82.7983 11.2623C85.0418 11.2623 86.4614 12.7343 86.4614 15.2058V20.9174H83.9901V15.5731C83.9901 14.2239 83.3412 13.3825 82.062 13.3825C80.9249 13.3825 80.0465 14.2239 80.0465 15.6959V20.9174H77.6104V11.4528Z" fill="black"/>
<path id="Vector_5" d="M87.1045 11.4528H88.8568V9.40203L91.2407 8V11.4528H93.7292V13.5911H91.2407V17.4822C91.2407 18.4812 91.6614 18.8314 92.2749 18.8314C92.6075 18.8314 92.8707 18.7262 93.151 18.4812L94.2551 20.3739C93.6417 20.8287 92.8707 21.0925 91.994 21.0925C90.0138 21.0925 88.8568 20.1459 88.8568 17.5675V13.5877H87.1045V11.4528Z" fill="black"/>
<path id="Vector_6" d="M37.2176 12.662C36.5694 11.7859 35.5352 11.26 34.2907 11.26C31.8721 11.26 29.6985 13.1703 29.6985 16.1847C29.6985 19.1992 31.9244 21.11 34.256 21.11C35.4829 21.11 36.5518 20.5489 37.2176 19.6204V20.9173H39.6015V11.4556H37.2176V12.662ZM34.729 18.8313C33.2741 18.8313 32.1001 17.6573 32.1001 16.1677C32.1001 14.6781 33.2741 13.5035 34.729 13.5035C36.2186 13.5035 37.358 14.6974 37.358 16.1677C37.358 17.6379 36.2186 18.8313 34.729 18.8313Z" fill="black"/>
<path id="Vector_7" d="M47.6696 11.4528L45.3386 17.5522L42.8847 11.4528H40.3081L44.1116 20.5143L44.1611 20.6326L42.6266 24.6476L42.6186 24.6681H45.1424L50.1934 11.4528H47.6696Z" fill="black"/>
<path id="Vector_8" d="M96.5129 17.8558C96.9359 18.6955 97.691 19.1316 98.6899 19.1293C99.6718 19.1265 100.196 18.6523 100.195 18.0912C100.195 17.4089 99.176 17.2525 97.9656 17.0109C96.3697 16.6823 94.5975 16.1962 94.5918 14.1978C94.5878 12.6058 96.1269 11.214 98.4579 11.2254C100.311 11.2203 101.471 11.865 102.333 12.9629L100.324 14.1301C99.9367 13.5001 99.3397 13.1334 98.463 13.1357C97.5164 13.1385 97.0616 13.5252 97.0633 14.0511C97.0633 14.6469 97.8365 14.8027 99.2238 15.0972C100.802 15.4082 102.663 15.9466 102.668 17.9797C102.672 19.4523 101.36 21.1209 98.6086 21.1107C96.5334 21.1164 95.1615 20.4006 94.3672 19.1032L94.3638 19.0975L96.5129 17.8558Z" fill="black"/>
<path id="Vector_9" d="M15.2215 15.6026C15.0418 14.0644 14.3077 12.6443 13.1565 11.6083C12.0054 10.5722 10.5161 9.9912 8.96752 9.974H8.89702C8.65004 9.97411 8.40327 9.98834 8.15791 10.0167C7.28999 10.1166 6.45207 10.3947 5.69668 10.8337C5.68019 10.8433 5.66484 10.853 5.64835 10.8621L5.60628 10.8871C1.96531 13.0555 0.666748 18.0633 0.666748 21.1101L3.59874 19.4176C4.63236 21.3864 6.61488 22.6839 8.82539 22.7077H8.89589C9.14288 22.7074 9.38965 22.693 9.635 22.6645C11.3122 22.4687 12.8429 21.6148 13.8906 20.2904C14.9382 18.9661 15.417 17.2799 15.2215 15.6026Z" fill="black"/>
</g>
</g>
<defs>
<clipPath id="clip0_7098_1653">
<rect width="102" height="32" fill="white" transform="translate(0.666748)"/>
</clipPath>
</defs>
</svg>
