<svg width="35" height="34" viewBox="0 0 35 34" fill="none" xmlns="http://www.w3.org/2000/svg">
<g id="logo_privacy" clip-path="url(#clip0_7098_1632)">
<g id="Mask group">
<mask id="mask0_7098_1632" style="mask-type:alpha" maskUnits="userSpaceOnUse" x="0" y="0" width="35" height="34">
<g id="Group">
<path id="Vector" fill-rule="evenodd" clip-rule="evenodd" d="M17.3239 0.019043C7.94031 0.019043 0.333374 7.62599 0.333374 17.0097C0.333374 26.3931 7.94031 34 17.3239 34C26.7074 34 34.3142 26.3931 34.3142 17.0097C34.3142 7.62599 26.7074 0.019043 17.3239 0.019043Z" fill="white"/>
</g>
</mask>
<g mask="url(#mask0_7098_1632)">
<g id="Group_2">
<path id="Vector_2" fill-rule="evenodd" clip-rule="evenodd" d="M17.3239 0.019043C7.94031 0.019043 0.333374 7.62599 0.333374 17.0097C0.333374 26.3931 7.94031 34 17.3239 34C26.7074 34 34.3142 26.3931 34.3142 17.0097C34.3142 7.62599 26.7074 0.019043 17.3239 0.019043Z" fill="url(#paint0_radial_7098_1632)"/>
</g>
</g>
</g>
<path id="Vector_3" fill-rule="evenodd" clip-rule="evenodd" d="M14.5496 25.8262C14.3675 25.9468 14.1607 25.961 13.9273 25.9597C13.9714 25.7546 14.0077 25.5749 14.051 25.3971C14.0591 25.364 14.0668 25.313 14.1198 25.313C14.2811 25.313 14.4239 25.315 14.5718 25.369C14.7247 25.4247 14.7163 25.7158 14.5496 25.8262ZM14.2315 26.8893C14.2712 27.0478 14.2914 27.2113 14.3153 27.3732C14.3299 27.4728 14.3813 27.5141 14.481 27.5111C14.6141 27.5072 14.7474 27.5113 14.8805 27.51C15.0617 27.5083 15.0884 27.4779 15.0439 27.2962C14.9651 26.9751 14.9177 26.5814 14.7379 26.3337C14.7717 26.3165 14.8904 26.2722 14.9527 26.2388C15.2833 26.0617 15.4468 25.7436 15.3934 25.3836C15.3473 25.0739 15.1459 24.8623 14.7588 24.8142C14.3747 24.7665 13.9834 24.7725 13.5951 24.7683C13.5717 24.7679 13.5232 24.7667 13.4959 24.7894C13.4659 24.814 13.4578 24.8637 13.4519 24.8903C13.2698 25.7098 13.0968 26.5312 12.9219 27.3521C12.8996 27.4566 12.9422 27.5095 13.0488 27.5099C13.1718 27.5103 13.2951 27.5045 13.4176 27.5119C13.5409 27.5195 13.6038 27.4779 13.6268 27.3488C13.6708 27.102 13.7266 26.8572 13.7871 26.6139C13.8003 26.5614 13.8127 26.4703 13.8464 26.4716C13.8464 26.4716 13.9951 26.4584 14.0334 26.4635C14.072 26.4686 14.1681 26.636 14.2315 26.8893Z" fill="#C3C3C3"/>
<path id="Vector_4" fill-rule="evenodd" clip-rule="evenodd" d="M11.5717 26.1886C11.6346 25.9045 11.6945 25.633 11.7561 25.3618C11.7602 25.3437 11.778 25.3137 11.788 25.3141C11.9285 25.3216 12.0785 25.307 12.2045 25.355C12.2669 25.3788 12.3179 25.5199 12.3171 25.6074C12.3141 25.9754 12.0052 26.222 11.5717 26.1886ZM12.4298 24.8178C12.2146 24.7762 11.7733 24.7565 11.7729 24.7608C11.6192 24.7608 11.4655 24.7614 11.3117 24.7606C11.217 24.76 11.1582 24.7989 11.1378 24.8966C10.9652 25.7136 10.7916 26.53 10.6171 27.3467C10.5925 27.4617 10.6397 27.511 10.7525 27.5105C10.8805 27.5097 11.0089 27.5067 11.1368 27.5118C11.2415 27.5159 11.297 27.4766 11.3165 27.3697C11.3468 27.2035 11.3962 27.0405 11.4225 26.874C11.4318 26.8146 11.4415 26.768 11.4722 26.7431C11.5029 26.7182 11.5543 26.715 11.6125 26.7069C11.8595 26.6729 12.1128 26.6392 12.346 26.5563C12.7928 26.3975 13.0206 26.0591 13.033 25.5825C13.044 25.1645 12.8412 24.8974 12.4298 24.8178Z" fill="#C3C3C3"/>
<path id="Vector_5" fill-rule="evenodd" clip-rule="evenodd" d="M18.4444 25.1837C18.683 24.6816 18.5313 24.7725 19.1025 24.7622C19.1381 24.7615 19.1741 24.7609 19.2097 24.7633C19.3678 24.7738 19.4066 24.8329 19.334 24.9692C18.9004 25.782 18.4662 26.5944 18.0258 27.4034C17.9981 27.4539 17.9188 27.5003 17.8601 27.5052C17.6974 27.519 17.5328 27.5085 17.369 27.5106C17.2665 27.5117 17.2264 27.4628 17.2158 27.3627C17.1297 26.5588 17.0414 25.7552 16.9498 24.9519C16.9344 24.8171 16.9851 24.7598 17.1167 24.7614C17.2496 24.7631 17.3829 24.7652 17.5159 24.7614C17.6557 24.7571 17.7017 24.824 17.7039 24.9585L17.7384 26.6903L18.4444 25.1837Z" fill="#C3C3C3"/>
<path id="Vector_6" fill-rule="evenodd" clip-rule="evenodd" d="M9.64767 26.2361C9.49308 26.2915 9.15118 26.3227 9.14307 26.3057C9.19741 26.1152 9.28765 25.9468 9.48784 25.8745C9.5919 25.8368 9.71535 25.8147 9.78049 25.9484C9.82848 26.0467 9.77048 26.1922 9.64767 26.2361ZM10.0399 25.4107C9.80639 25.3297 9.56712 25.3306 9.32896 25.3896C8.60972 25.5677 8.33518 26.2858 8.40826 26.8808C8.45179 27.2346 8.66628 27.4669 9.02185 27.5097C9.26636 27.539 9.52248 27.5303 9.76635 27.4922C10.1154 27.4375 10.1126 27.4194 10.1747 27.0713C10.2123 26.8608 10.1772 26.8386 9.9721 26.8892C9.76032 26.9415 9.54345 26.9771 9.32674 27.003C9.22108 27.0157 9.12337 26.9734 9.1059 26.8165C9.17088 26.8117 9.22633 26.8085 9.28162 26.8034C9.59333 26.7756 9.90601 26.7475 10.1785 26.5716C10.4176 26.4174 10.512 26.1903 10.4788 25.9123C10.4472 25.6482 10.2795 25.4938 10.0399 25.4107Z" fill="#C3C3C3"/>
<path id="Vector_7" fill-rule="evenodd" clip-rule="evenodd" d="M24.1181 27.3587C24.102 27.5094 24.1689 27.5098 24.4368 27.5081C24.7159 27.5063 24.7699 27.5361 24.8027 27.4003L25.0003 26.4226L26.1339 24.9861C26.1663 24.9435 26.1978 24.8804 26.1851 24.834C26.1668 24.767 26.087 24.7728 26.087 24.7728H25.5437C25.4514 24.7728 25.4423 24.8087 25.4423 24.8087C25.3155 24.9786 24.8087 25.7541 24.7674 25.8081C24.745 25.7283 24.6058 25.1764 24.5629 24.9505C24.544 24.8516 24.504 24.7962 24.4315 24.7766C24.4034 24.769 23.912 24.7738 23.8869 24.7781C23.7817 24.7956 23.7707 24.8513 23.8205 24.9951L24.316 26.3918L24.1181 27.3587Z" fill="#C3C3C3"/>
<path id="Vector_8" fill-rule="evenodd" clip-rule="evenodd" d="M23.239 26.9945C23.237 26.91 23.1884 26.8871 23.0743 26.9093C22.9238 26.9384 22.775 26.9821 22.6232 26.9969C22.3433 27.0239 22.2387 26.9251 22.2316 26.6411C22.2225 26.2799 22.3161 25.9408 22.4855 25.6248C22.6566 25.3055 22.93 25.2003 23.2753 25.3066C23.5929 25.4043 23.5897 25.4036 23.6626 25.07C23.6863 24.9612 23.6566 24.9008 23.5558 24.8525C23.4429 24.7982 23.2959 24.7259 23.0123 24.7097C22.4656 24.7097 22.1709 24.9159 21.9127 25.3091C21.6428 25.7203 21.5225 26.1772 21.5341 26.6634C21.5476 27.2412 21.8709 27.542 22.4516 27.5433C22.5536 27.5436 22.656 27.5321 22.7572 27.5191C23.1048 27.4745 23.151 27.4656 23.2055 27.205C23.2133 27.1678 23.2395 27.0137 23.239 26.9945Z" fill="#C3C3C3"/>
<path id="Vector_9" fill-rule="evenodd" clip-rule="evenodd" d="M16.5833 24.7628C16.4656 24.7606 16.3475 24.7667 16.2301 24.7597C16.0911 24.7514 16.0331 24.8123 16.0051 24.9481C15.855 25.6797 15.6969 26.4098 15.54 27.1401C15.5274 27.1981 15.5169 27.2471 15.5094 27.2882C15.5056 27.3087 15.5026 27.3276 15.5007 27.3445C15.4985 27.3615 15.4974 27.3767 15.4974 27.3904C15.4964 27.5108 15.5773 27.5105 15.8386 27.5102C15.9052 27.5102 15.9718 27.5079 16.0382 27.5108C16.1292 27.5145 16.1794 27.4766 16.1991 27.3847C16.3731 26.569 16.5487 25.7538 16.7255 24.9387C16.752 24.8161 16.6991 24.7649 16.5833 24.7628Z" fill="#C3C3C3"/>
<path id="Vector_10" fill-rule="evenodd" clip-rule="evenodd" d="M19.9988 26.4365L20.4564 25.51L20.4986 26.4365H19.9988ZM21.2727 27.3055C21.2562 27.1323 21.2322 26.96 21.2112 26.7874C21.1367 26.1729 21.0595 25.5588 20.9892 24.9436C20.9738 24.8073 20.9093 24.7573 20.7789 24.7624C20.651 24.7671 20.5226 24.7695 20.395 24.7611C20.2554 24.752 20.1718 24.8038 20.1038 24.9311C19.6896 25.7077 19.2668 26.4797 18.8474 27.2536L18.7878 27.3513C18.7263 27.5076 18.8474 27.5095 18.8474 27.5095H19.3798C19.5002 27.5095 19.5157 27.4425 19.5157 27.4425L19.749 26.9735H20.4742C20.5587 26.9735 20.5512 27.0041 20.5512 27.0041C20.5512 27.0041 20.5485 27.1811 20.5587 27.3502C20.5692 27.5194 20.6486 27.5095 20.6486 27.5095H21.0863C21.2738 27.5078 21.2903 27.4928 21.2727 27.3055Z" fill="#C3C3C3"/>
<path id="Vector_11" fill-rule="evenodd" clip-rule="evenodd" d="M20.0794 29.317C20.1255 29.3262 20.1747 29.3324 20.2483 29.3324C20.516 29.3324 20.6914 29.1602 20.6914 28.9541C20.6914 28.7541 20.5467 28.6896 20.3746 28.6896C20.2915 28.6896 20.233 28.6956 20.196 28.7048L20.0794 29.317ZM19.8209 28.3912C19.9531 28.3574 20.1622 28.3358 20.3622 28.3358C20.5467 28.3358 20.7621 28.3666 20.9127 28.4741C21.0511 28.5696 21.1372 28.714 21.1372 28.9141C21.1372 29.1754 21.0173 29.3724 20.8544 29.4984C20.6852 29.6308 20.4453 29.6891 20.1932 29.6891C20.1193 29.6891 20.0576 29.683 20.0116 29.6768L19.8702 30.4242H19.4364L19.8209 28.3912Z" fill="white"/>
<path id="Vector_12" fill-rule="evenodd" clip-rule="evenodd" d="M21.5341 28.3512H21.9769L21.6571 30.0367H22.4537L22.3799 30.4242H21.1403L21.5341 28.3512Z" fill="white"/>
<path id="Vector_13" fill-rule="evenodd" clip-rule="evenodd" d="M23.4715 28.3512L23.2438 29.5447C23.2286 29.6154 23.2224 29.6983 23.2224 29.7908C23.2224 29.9566 23.3239 30.086 23.5238 30.086C23.7543 30.086 23.9083 29.9322 23.9822 29.5477L24.2097 28.3512H24.6526L24.4281 29.5292C24.3082 30.1567 24.0312 30.4582 23.4683 30.4582C23.041 30.4582 22.7794 30.2397 22.7794 29.7968C22.7794 29.7075 22.7918 29.606 22.8103 29.5076L23.0287 28.3512H23.4715Z" fill="white"/>
<path id="Vector_14" fill-rule="evenodd" clip-rule="evenodd" d="M24.7354 29.9445C24.8584 30.0183 25.0338 30.0766 25.2244 30.0766C25.3966 30.0766 25.5535 29.9967 25.5535 29.8337C25.5535 29.7168 25.4643 29.6399 25.2737 29.5415C25.0522 29.4216 24.8431 29.2616 24.8431 28.9909C24.8431 28.5725 25.209 28.3174 25.6612 28.3174C25.9133 28.3174 26.0611 28.3727 26.1502 28.4219L26.0118 28.791C25.9441 28.7541 25.7967 28.6957 25.6245 28.6987C25.4183 28.6987 25.3105 28.8032 25.3105 28.9171C25.3105 29.0371 25.4367 29.111 25.6121 29.2093C25.8641 29.3415 26.0241 29.5109 26.0241 29.7568C26.0241 30.2182 25.6427 30.4551 25.1815 30.4551C24.8922 30.4551 24.6861 30.3812 24.5878 30.3073L24.7354 29.9445Z" fill="white"/>
<path id="Vector_15" fill-rule="evenodd" clip-rule="evenodd" d="M30.1738 19.7126C29.9714 19.1027 29.5247 18.8412 28.8442 18.9351C28.824 18.9379 28.8064 18.9408 28.7941 18.9416C28.4897 18.9544 28.1829 19.1794 27.6512 19.668C27.015 17.7282 26.2184 15.5201 25.6695 14.7739C24.8713 13.6887 23.9976 13.1295 23.2355 12.8481C24.5615 12.1246 25.461 10.7179 25.461 9.10097C25.461 6.74496 23.551 4.83508 21.195 4.83508C18.8391 4.83508 16.9292 6.74496 16.9292 9.10097C16.9292 10.736 17.8495 12.1556 19.1998 12.8716C18.4619 13.1601 17.5926 13.7177 16.7208 14.7739C16.0602 15.5741 15.1916 18.2506 14.5845 20.3341C14.29 20.2974 13.9992 20.252 13.7128 20.1988C14.4751 17.8734 15.2478 15.6442 15.6096 14.9896C16.449 13.4709 17.5841 12.7434 17.5841 12.7434C14.6835 9.4513 16.8311 6.44516 17.2549 5.91514C16.9936 5.86096 16.7227 5.83236 16.4451 5.83236C14.2482 5.83236 12.4673 7.61339 12.4673 9.8102C12.4673 11.3348 13.3254 12.6584 14.5845 13.3262C13.8966 13.5952 13.086 14.1152 12.273 15.0999C11.7571 15.7246 11.1059 17.5755 10.5752 19.3016C10.2991 19.1956 10.0337 19.0866 9.77873 18.9764C10.2002 17.7324 10.603 16.5938 10.8693 15.9569C11.6847 14.0065 12.9956 13.2871 12.9956 13.2871C12.9956 13.2871 10.0827 10.4506 12.596 6.82122C12.2946 6.74464 11.9789 6.70365 11.6538 6.70365C9.54645 6.70365 7.83819 8.41191 7.83819 10.5191C7.83819 11.9816 8.66134 13.2512 9.86914 13.8916C9.20915 14.1496 8.50421 14.6484 7.72443 15.5931C7.45418 15.9203 7.13992 16.5989 6.82455 17.4168C6.55398 17.2436 6.40272 17.1353 6.39478 17.1296C6.19507 16.9845 5.91513 17.0285 5.76959 17.2285C5.62422 17.4284 5.66839 17.7084 5.86826 17.8537C6.05208 17.9877 10.4332 21.1338 15.7515 21.3286C20.8794 21.516 23.3737 19.9752 24.5721 19.2347L24.7399 19.1316C24.8172 19.0842 25.0791 18.9376 25.1949 19.035C25.3144 19.1359 25.3957 19.488 25.2375 19.8871C25 20.4857 24.2655 21.2061 23.7213 21.5302C23.3778 21.735 23.1288 22.1972 23.3257 22.587C23.701 23.3306 24.9833 22.7925 25.4048 22.6155C26.1812 22.2895 27.0442 21.4716 27.8058 20.7501C28.1794 20.3959 28.6878 19.9142 28.8685 19.8337C28.8974 19.8311 28.9306 19.827 28.967 19.8219C29.2145 19.7876 29.2582 19.7967 29.3238 19.9945C29.426 20.3019 30.2086 23.0878 26.3418 26.2184C26.1496 26.3741 26.1199 26.6559 26.2754 26.848C26.3641 26.9573 26.4933 27.014 26.6237 27.014C26.7225 27.014 26.8223 26.9815 26.9051 26.9143C30.197 24.2492 30.7232 21.3692 30.1738 19.7126Z" fill="white"/>
</g>
<defs>
<radialGradient id="paint0_radial_7098_1632" cx="0" cy="0" r="1" gradientUnits="userSpaceOnUse" gradientTransform="translate(11.444 4.21135) scale(31.0439 31.044)">
<stop stop-color="#BCBCBA"/>
<stop offset="1" stop-color="#676766"/>
</radialGradient>
<clipPath id="clip0_7098_1632">
<rect width="34" height="34" fill="white" transform="translate(0.333374)"/>
</clipPath>
</defs>
</svg>
